<svg width="1102" height="667" viewBox="0 0 1102 667" fill="none" xmlns="http://www.w3.org/2000/svg">
<g id="image_map all clear">
<g id="Group 2085665101">
<path id="Exclude_2" fill-rule="evenodd" clip-rule="evenodd" d="M757.194 276.841L766.783 272.045C774.239 268.315 777.223 259.222 773.427 251.8L769.376 243.877C767.989 241.166 767.461 238.096 767.861 235.078L773.782 190.376L779.75 145.322C780.121 142.523 779.694 139.676 778.518 137.108L744.574 62.9674C741.05 55.27 744.589 46.1831 752.392 42.8983L851.307 1.25553C855.619 -0.56007 860.532 -0.259124 864.591 2.06929L984.426 70.8155C986.558 72.0386 988.357 73.7669 989.664 75.8485L1042.29 159.631C1042.71 160.312 1043.2 160.958 1043.73 161.561L1098.02 223.259C1101.76 227.516 1102.79 233.521 1100.67 238.779L1012.81 456.59C1010.85 461.445 1006.5 464.928 1001.34 465.779L868.318 487.699C862.192 488.708 856.078 485.84 852.939 480.485L788.765 371.021C786.778 367.632 783.54 365.157 779.748 364.13L751.164 356.384C751.372 355.688 751.605 354.997 751.864 354.313L758.451 336.906C764.717 320.346 765.223 302.159 759.885 285.277L757.817 278.736C757.617 278.101 757.409 277.47 757.194 276.841Z" fill="#FFE566"/>
<g id="Rectangle 1954129084" filter="url(#filter2_d_698_4028)">
<rect x="865.125" y="138.08" width="129" height="129" rx="64.5" fill="white"/>
</g>
<g id="Group 2085665046">
<path id="Ellipse 22" d="M969.117 233.215C969.117 249.977 951.434 253.16 929.621 253.16C907.808 253.16 890.125 249.977 890.125 233.215C890.125 216.452 907.808 202.863 929.621 202.863C951.434 202.863 969.117 216.452 969.117 233.215Z" fill="#3B3B3B"/>
<path id="Ellipse 23" d="M965.892 195.919C965.892 217.369 949.653 224.304 929.621 224.304C909.588 224.304 893.349 217.369 893.349 195.919C893.349 174.469 909.588 157.08 929.621 157.08C949.653 157.08 965.892 174.469 965.892 195.919Z" fill="#3B3B3B"/>
<path id="Ellipse 29" d="M956.22 191.018C956.22 204.598 944.311 208.989 929.621 208.989C914.93 208.989 903.021 204.598 903.021 191.018C903.021 177.439 914.93 166.43 929.621 166.43C944.311 166.43 956.22 177.439 956.22 191.018Z" fill="#FFE0CE"/>
<ellipse id="Ellipse 24" cx="947.192" cy="190.128" rx="12.2518" ry="7.57674" fill="#FFBDBD"/>
<ellipse id="Ellipse 25" cx="912.372" cy="190.128" rx="12.2518" ry="7.57674" fill="#FFBDBD"/>
<ellipse id="Ellipse 26" cx="923.011" cy="184.324" rx="2.2569" ry="2.09569" fill="black"/>
<ellipse id="Ellipse 27" cx="936.23" cy="184.324" rx="2.2569" ry="2.09569" fill="black"/>
<rect id="Rectangle 31" x="954.608" y="178.359" width="4.83622" height="19.9897" fill="#3B3B3B"/>
<rect id="Rectangle 32" x="900.12" y="178.359" width="4.83622" height="19.9897" fill="#3B3B3B"/>
<path id="Ellipse 28" d="M954.608 191.018C954.608 197.226 951.943 201.191 947.62 203.702C943.168 206.287 936.856 207.377 929.621 207.377C922.385 207.377 916.073 206.287 911.622 203.702C907.298 201.191 904.634 197.226 904.634 191.018C904.634 178.446 915.699 168.042 929.621 168.042C943.542 168.042 954.608 178.446 954.608 191.018Z" stroke="#FF6969" stroke-width="3.22415"/>
<path id="Star 1" d="M945.884 218.52C945.949 217.272 947.573 216.837 948.253 217.885L950.149 220.805C950.454 221.273 951.025 221.492 951.565 221.348L954.927 220.447C956.134 220.123 957.05 221.533 956.264 222.504L954.073 225.21C953.721 225.644 953.689 226.255 953.993 226.724L955.889 229.643C956.57 230.691 955.512 231.998 954.346 231.55L951.095 230.302C950.574 230.102 949.983 230.26 949.631 230.695L947.44 233.4C946.654 234.371 945.085 233.769 945.15 232.521L945.332 229.044C945.361 228.486 945.028 227.973 944.506 227.773L941.256 226.525C940.09 226.078 940.178 224.399 941.385 224.076L944.747 223.175C945.287 223.03 945.672 222.554 945.702 221.996L945.884 218.52Z" fill="#FFE666"/>
</g>
<g id="Group 2085665039">
<path id="Rectangle 1954129075" d="M1053.12 236.08H1010.12V280.08H1053.12L1043.81 258.08L1053.12 236.08Z" fill="#E3E6ED"/>
<path id="Rectangle 1954129076" d="M805.125 236.08H848.125V280.08H805.125L814.442 258.08L805.125 236.08Z" fill="#E3E6ED"/>
<rect id="Rectangle 1954129077" x="834.125" y="224.08" width="190" height="44" fill="#F8F9FC"/>
<path id="&#235;&#139;&#172;&#235;&#185;&#155;&#236;&#158;&#160;&#236;&#136;&#152; &#235;&#167;&#136;&#236;&#157;&#132;" d="M876.928 237.888H879.328V241.584H876.928V245.112H872.872V235.08H876.928V237.888ZM871.912 244.008C870.856 244.44 868.936 244.68 867.016 244.68H858.136V235.32H870.736V238.632H862.192V241.392H867.184C869.032 241.392 870.832 241.176 871.912 240.768V244.008ZM862.864 251.952V252.768H877.144V255.576H858.856V249.456H872.92V248.64H858.808V245.832H876.928V251.952H862.864ZM900.59 235.08V246.24H896.534V235.08H900.59ZM894.158 235.32V245.136H881.438V235.32H885.398V237.048H890.198V235.32H894.158ZM885.398 241.944H890.198V240.168H885.398V241.944ZM901.238 252.552L900.254 255.816L891.11 253.56C888.83 255.024 885.446 255.576 882.062 255.576V252.288C884.99 252.288 887.846 251.76 889.214 250.536H882.278V247.368H889.358V245.856H893.486V247.368H900.59V250.536H893.678C893.606 250.68 893.558 250.824 893.51 250.944L901.238 252.552ZM925.5 238.224V242.088H923.1V246.168H919.044V235.08H923.1V238.224H925.5ZM911.076 242.808C909.468 244.632 907.02 245.952 904.092 246.024V242.472C906.732 242.328 908.46 240.504 908.892 238.68H904.38V235.32H917.436V238.68H912.996C912.948 239.064 912.876 239.448 912.756 239.808L918.156 242.808L916.26 245.808L911.076 242.808ZM905.004 255.576V246.888H923.1V255.576H905.004ZM909.06 250.224V252.24H919.044V250.224H909.06ZM937.186 241.704C934.786 244.464 931.234 246.192 927.418 246.168V242.352C931.426 242.352 935.314 239.28 935.962 234.768L940.09 235.368C939.922 236.52 939.586 237.6 939.13 238.632L947.602 242.784L945.706 246.192L937.186 241.704ZM947.674 247.704V251.448H939.394V256.056H935.218V251.448H926.938V247.704H947.674ZM978.398 242.568V246.504H975.998V255.576H971.942V235.08H975.998V242.568H978.398ZM957.446 254.616V235.56H969.374V254.616H957.446ZM961.502 239.328V250.848H965.318V239.328H961.502ZM990.204 234.744C995.58 234.744 999.516 235.752 999.516 238.608C999.516 241.464 995.58 242.472 990.204 242.472C984.828 242.472 980.892 241.464 980.892 238.608C980.892 235.752 984.828 234.744 990.204 234.744ZM990.204 237.648C987.156 237.648 985.188 237.936 985.188 238.608C985.188 239.304 987.156 239.568 990.204 239.568C993.252 239.568 995.22 239.304 995.22 238.608C995.22 237.936 993.252 237.648 990.204 237.648ZM1000.57 243.144V246.096H979.836V243.144H1000.57ZM999.372 246.888V252.24H985.02V252.936H999.588V255.576H981.06V250.128H995.412V249.432H981.012V246.888H999.372Z" fill="#5277FC"/>
<path id="Polygon 16" d="M848.125 268.142L848.125 280.142L834.125 268.142L848.125 268.142Z" fill="#4A4C54"/>
<path id="Polygon 17" d="M1010.12 268.081L1010.12 280.081L1024.13 268.081L1010.12 268.081Z" fill="#4A4C54"/>
</g>
</g>
</g>
<defs>
<filter id="filter0_d_698_4028" x="83.125" y="299.08" width="169" height="169" filterUnits="userSpaceOnUse" color-interpolation-filters="sRGB">
<feFlood flood-opacity="0" result="BackgroundImageFix"/>
<feColorMatrix in="SourceAlpha" type="matrix" values="0 0 0 0 0 0 0 0 0 0 0 0 0 0 0 0 0 0 127 0" result="hardAlpha"/>
<feOffset dy="-5"/>
<feGaussianBlur stdDeviation="10"/>
<feComposite in2="hardAlpha" operator="out"/>
<feColorMatrix type="matrix" values="0 0 0 0 0 0 0 0 0 0 0 0 0 0 0 0 0 0 0.15 0"/>
<feBlend mode="normal" in2="BackgroundImageFix" result="effect1_dropShadow_698_4028"/>
<feBlend mode="normal" in="SourceGraphic" in2="effect1_dropShadow_698_4028" result="shape"/>
</filter>
<filter id="filter1_d_698_4028" x="472.125" y="222.08" width="169" height="169" filterUnits="userSpaceOnUse" color-interpolation-filters="sRGB">
<feFlood flood-opacity="0" result="BackgroundImageFix"/>
<feColorMatrix in="SourceAlpha" type="matrix" values="0 0 0 0 0 0 0 0 0 0 0 0 0 0 0 0 0 0 127 0" result="hardAlpha"/>
<feOffset dy="-5"/>
<feGaussianBlur stdDeviation="10"/>
<feComposite in2="hardAlpha" operator="out"/>
<feColorMatrix type="matrix" values="0 0 0 0 0 0 0 0 0 0 0 0 0 0 0 0 0 0 0.15 0"/>
<feBlend mode="normal" in2="BackgroundImageFix" result="effect1_dropShadow_698_4028"/>
<feBlend mode="normal" in="SourceGraphic" in2="effect1_dropShadow_698_4028" result="shape"/>
</filter>
<filter id="filter2_d_698_4028" x="845.125" y="113.08" width="169" height="169" filterUnits="userSpaceOnUse" color-interpolation-filters="sRGB">
<feFlood flood-opacity="0" result="BackgroundImageFix"/>
<feColorMatrix in="SourceAlpha" type="matrix" values="0 0 0 0 0 0 0 0 0 0 0 0 0 0 0 0 0 0 127 0" result="hardAlpha"/>
<feOffset dy="-5"/>
<feGaussianBlur stdDeviation="10"/>
<feComposite in2="hardAlpha" operator="out"/>
<feColorMatrix type="matrix" values="0 0 0 0 0 0 0 0 0 0 0 0 0 0 0 0 0 0 0.15 0"/>
<feBlend mode="normal" in2="BackgroundImageFix" result="effect1_dropShadow_698_4028"/>
<feBlend mode="normal" in="SourceGraphic" in2="effect1_dropShadow_698_4028" result="shape"/>
</filter>
<filter id="filter3_d_698_4028" x="487.125" y="28.0803" width="169" height="169" filterUnits="userSpaceOnUse" color-interpolation-filters="sRGB">
<feFlood flood-opacity="0" result="BackgroundImageFix"/>
<feColorMatrix in="SourceAlpha" type="matrix" values="0 0 0 0 0 0 0 0 0 0 0 0 0 0 0 0 0 0 127 0" result="hardAlpha"/>
<feOffset dy="-5"/>
<feGaussianBlur stdDeviation="10"/>
<feComposite in2="hardAlpha" operator="out"/>
<feColorMatrix type="matrix" values="0 0 0 0 0 0 0 0 0 0 0 0 0 0 0 0 0 0 0.15 0"/>
<feBlend mode="normal" in2="BackgroundImageFix" result="effect1_dropShadow_698_4028"/>
<feBlend mode="normal" in="SourceGraphic" in2="effect1_dropShadow_698_4028" result="shape"/>
</filter>
<filter id="filter4_d_698_4028" x="437.125" y="418.08" width="169" height="169" filterUnits="userSpaceOnUse" color-interpolation-filters="sRGB">
<feFlood flood-opacity="0" result="BackgroundImageFix"/>
<feColorMatrix in="SourceAlpha" type="matrix" values="0 0 0 0 0 0 0 0 0 0 0 0 0 0 0 0 0 0 127 0" result="hardAlpha"/>
<feOffset dy="-5"/>
<feGaussianBlur stdDeviation="10"/>
<feComposite in2="hardAlpha" operator="out"/>
<feColorMatrix type="matrix" values="0 0 0 0 0 0 0 0 0 0 0 0 0 0 0 0 0 0 0.15 0"/>
<feBlend mode="normal" in2="BackgroundImageFix" result="effect1_dropShadow_698_4028"/>
<feBlend mode="normal" in="SourceGraphic" in2="effect1_dropShadow_698_4028" result="shape"/>
</filter>
</defs>
</svg>
