<svg width="1102" height="667" viewBox="0 0 1102 667" fill="none" xmlns="http://www.w3.org/2000/svg">
<g id="image_map all clear">
<g id="Group 2085665099">
<path id="Exclude" fill-rule="evenodd" clip-rule="evenodd" d="M363.265 175.714L382.756 190.943C385.89 193.391 387.923 196.984 388.409 200.931L397.193 272.341C386.6 281.77 377.877 293.367 371.727 306.584L345.246 363.495C341.602 371.325 343.46 380.614 349.836 386.441C354.845 391.019 357.158 397.846 355.963 404.526L352.766 422.389C351.231 430.97 351.866 439.667 354.453 447.748L346.831 462.871C343.092 470.292 334.033 473.258 326.628 469.486L324.689 468.499C317.143 464.655 307.913 467.816 304.308 475.479L293.88 497.644C292.94 499.642 292.453 501.823 292.453 504.03V599.245C292.453 603.776 290.404 608.065 286.879 610.913L221.954 663.36C217.414 667.028 211.158 667.729 205.918 665.157L8.39422 568.193C2.81176 565.452 -0.500781 559.551 0.0668251 553.359L15.3583 386.521C15.6355 383.497 16.8242 380.628 18.7672 378.294L122.748 253.381C123.626 252.326 124.645 251.396 125.776 250.619L245.345 168.372C247.367 166.982 249.698 166.108 252.136 165.829L340.948 155.637C347.489 154.887 353.754 158.489 356.397 164.519L358.761 169.914C359.759 172.191 361.307 174.184 363.265 175.714Z" fill="#FF6969"/>
<g id="Rectangle 1954129081" filter="url(#filter0_d_698_4028)">
<rect x="103.125" y="324.08" width="129" height="129" rx="64.5" fill="white"/>
</g>
<g id="Group 2085665042">
<g id="Group 2085664973">
<ellipse id="Ellipse 18" cx="167.924" cy="365.384" rx="21.6995" ry="21.8492" fill="#FF6969"/>
<ellipse id="Ellipse 19" cx="152.061" cy="412.973" rx="21.6995" ry="21.8492" fill="#FF6969"/>
<ellipse id="Ellipse 20" cx="183.188" cy="412.973" rx="21.6995" ry="21.8492" fill="#FF6969"/>
<circle id="Ellipse 19_2" cx="21.6995" cy="21.6995" r="21.6995" transform="matrix(1 0 0 -1 171.066 405.192)" fill="#FF6969"/>
<circle id="Ellipse 19_3" cx="142.483" cy="383.492" r="21.6995" fill="#FF6969"/>
</g>
<circle id="Ellipse 45" cx="167.775" cy="390.825" r="17.3596" fill="#FFE566"/>
<path id="Intersect" fill-rule="evenodd" clip-rule="evenodd" d="M204.717 345.287C205.902 349.03 205.011 353.287 202.044 356.255C199.076 359.222 194.819 360.113 191.076 358.928C189.891 355.186 190.782 350.928 193.75 347.961C196.717 344.993 200.975 344.102 204.717 345.287Z" fill="#24D5A6"/>
<ellipse id="Ellipse 18_2" cx="180.943" cy="391.274" rx="9.27842" ry="7.03364" fill="#F8A69C"/>
<ellipse id="Ellipse 19_4" cx="154.606" cy="391.274" rx="9.27842" ry="7.03364" fill="#F8A69C"/>
<ellipse id="Ellipse 20_2" cx="161.49" cy="385.886" rx="2.09513" ry="1.94548" fill="black"/>
<ellipse id="Ellipse 21" cx="173.76" cy="385.886" rx="2.09513" ry="1.94548" fill="black"/>
</g>
<g id="Group 2085665037">
<path id="Rectangle 1954129071" d="M285.125 427.08H237.125V471.08H285.125L274.725 449.08L285.125 427.08Z" fill="#E3E6ED"/>
<path id="Rectangle 1954129070" d="M51.125 427.08H99.125V471.08H51.125L61.525 449.08L51.125 427.08Z" fill="#E3E6ED"/>
<rect id="Rectangle 1954129069" x="85.125" y="415.08" width="166" height="44" fill="#F8F9FC"/>
<path id="&#235;&#143;&#153;&#235;&#176;&#177;&#234;&#189;&#131; &#236;&#160;&#149;&#236;&#155;&#144;" d="M121.107 434.84H129.459V437.96H108.723V434.84H117.075V433.712H109.971V426.08H128.211V429.176H114.003V430.616H128.451V433.712H121.107V434.84ZM119.091 438.752C124.635 438.752 128.499 439.856 128.499 442.808C128.499 445.76 124.635 446.864 119.091 446.864C113.547 446.864 109.683 445.76 109.683 442.808C109.683 439.856 113.547 438.752 119.091 438.752ZM119.091 443.84C122.091 443.84 124.179 443.552 124.179 442.808C124.179 442.088 122.091 441.776 119.091 441.776C116.091 441.776 114.003 442.088 114.003 442.808C114.003 443.552 116.091 443.84 119.091 443.84ZM148.417 426.08H152.209V438.896H148.417V434H146.713V438.68H142.969V426.176H146.713V430.232H148.417V426.08ZM141.577 426.32V438.128H132.169V426.32H135.817V429.008H137.929V426.32H141.577ZM135.817 434.936H137.929V432.128H135.817V434.936ZM133.249 443V439.616H152.209V446.816H148.201V443H133.249ZM159.527 432.296V429.176H155.879V426.08H163.487V432.296H159.527ZM170.519 432.536V429.176H164.423V426.08H174.479V432.536H170.519ZM168.575 433.424H175.631V436.52H154.895V433.424H164.567V430.64H168.575V433.424ZM167.351 441.32L167.135 441.776L175.199 443.768L174.143 446.792L164.927 444.128C162.671 445.688 159.311 446.576 155.783 446.576V443.48C158.855 443.48 161.687 442.688 163.007 441.32H155.927V438.392H163.223V437.168H167.303V438.392H174.599V441.32H167.351ZM192.051 433.952C190.443 435.824 187.995 437.192 185.067 437.264V433.712C187.707 433.568 189.459 431.624 189.867 429.68H185.355V426.32H198.411V429.248H200.571V426.08H204.627V437.552H200.571V432.704H197.835V429.68H193.971C193.923 430.112 193.851 430.52 193.707 430.952L199.179 434.072L197.235 437.048L192.051 433.952ZM195.459 437.84C200.691 437.84 204.819 438.992 204.819 442.328C204.819 445.664 200.691 446.816 195.459 446.816C190.227 446.816 186.099 445.664 186.099 442.328C186.099 438.992 190.227 437.84 195.459 437.84ZM195.459 443.624C198.219 443.624 200.451 443.264 200.451 442.328C200.451 441.416 198.219 441.032 195.459 441.032C192.699 441.032 190.467 441.416 190.467 442.328C190.467 443.264 192.699 443.624 195.459 443.624ZM215.089 434.216C211.393 434.216 208.801 432.824 208.801 430.04C208.801 427.256 211.393 425.864 215.089 425.864C218.785 425.864 221.377 427.256 221.377 430.04C221.377 432.824 218.785 434.216 215.089 434.216ZM218.425 438.608H223.705V426.08H227.761V441.992H223.705V441.416H218.425V438.608ZM215.089 428.84C213.649 428.84 212.713 429.224 212.713 430.04C212.713 430.856 213.649 431.24 215.089 431.24C216.529 431.24 217.465 430.856 217.465 430.04C217.465 429.224 216.529 428.84 215.089 428.84ZM213.481 443.192H228.049V446.576H209.425V440.072H212.689V438.032H207.793V434.912H217.225C219.121 434.912 221.257 434.72 222.529 434.168V437.288C221.257 437.84 219.193 438.032 217.153 438.032H216.721V441.128H213.481V443.192Z" fill="#5277FC"/>
<path id="Polygon 12" d="M99.125 459.142L99.125 471.142L85.125 459.142L99.125 459.142Z" fill="#4A4C54"/>
<path id="Polygon 13" d="M237.125 459.081L237.125 471.081L251.125 459.08L237.125 459.081Z" fill="#4A4C54"/>
</g>
</g>
</g>
<defs>
<filter id="filter0_d_698_4028" x="83.125" y="299.08" width="169" height="169" filterUnits="userSpaceOnUse" color-interpolation-filters="sRGB">
<feFlood flood-opacity="0" result="BackgroundImageFix"/>
<feColorMatrix in="SourceAlpha" type="matrix" values="0 0 0 0 0 0 0 0 0 0 0 0 0 0 0 0 0 0 127 0" result="hardAlpha"/>
<feOffset dy="-5"/>
<feGaussianBlur stdDeviation="10"/>
<feComposite in2="hardAlpha" operator="out"/>
<feColorMatrix type="matrix" values="0 0 0 0 0 0 0 0 0 0 0 0 0 0 0 0 0 0 0.15 0"/>
<feBlend mode="normal" in2="BackgroundImageFix" result="effect1_dropShadow_698_4028"/>
<feBlend mode="normal" in="SourceGraphic" in2="effect1_dropShadow_698_4028" result="shape"/>
</filter>
<filter id="filter1_d_698_4028" x="472.125" y="222.08" width="169" height="169" filterUnits="userSpaceOnUse" color-interpolation-filters="sRGB">
<feFlood flood-opacity="0" result="BackgroundImageFix"/>
<feColorMatrix in="SourceAlpha" type="matrix" values="0 0 0 0 0 0 0 0 0 0 0 0 0 0 0 0 0 0 127 0" result="hardAlpha"/>
<feOffset dy="-5"/>
<feGaussianBlur stdDeviation="10"/>
<feComposite in2="hardAlpha" operator="out"/>
<feColorMatrix type="matrix" values="0 0 0 0 0 0 0 0 0 0 0 0 0 0 0 0 0 0 0.15 0"/>
<feBlend mode="normal" in2="BackgroundImageFix" result="effect1_dropShadow_698_4028"/>
<feBlend mode="normal" in="SourceGraphic" in2="effect1_dropShadow_698_4028" result="shape"/>
</filter>
<filter id="filter2_d_698_4028" x="845.125" y="113.08" width="169" height="169" filterUnits="userSpaceOnUse" color-interpolation-filters="sRGB">
<feFlood flood-opacity="0" result="BackgroundImageFix"/>
<feColorMatrix in="SourceAlpha" type="matrix" values="0 0 0 0 0 0 0 0 0 0 0 0 0 0 0 0 0 0 127 0" result="hardAlpha"/>
<feOffset dy="-5"/>
<feGaussianBlur stdDeviation="10"/>
<feComposite in2="hardAlpha" operator="out"/>
<feColorMatrix type="matrix" values="0 0 0 0 0 0 0 0 0 0 0 0 0 0 0 0 0 0 0.15 0"/>
<feBlend mode="normal" in2="BackgroundImageFix" result="effect1_dropShadow_698_4028"/>
<feBlend mode="normal" in="SourceGraphic" in2="effect1_dropShadow_698_4028" result="shape"/>
</filter>
<filter id="filter3_d_698_4028" x="487.125" y="28.0803" width="169" height="169" filterUnits="userSpaceOnUse" color-interpolation-filters="sRGB">
<feFlood flood-opacity="0" result="BackgroundImageFix"/>
<feColorMatrix in="SourceAlpha" type="matrix" values="0 0 0 0 0 0 0 0 0 0 0 0 0 0 0 0 0 0 127 0" result="hardAlpha"/>
<feOffset dy="-5"/>
<feGaussianBlur stdDeviation="10"/>
<feComposite in2="hardAlpha" operator="out"/>
<feColorMatrix type="matrix" values="0 0 0 0 0 0 0 0 0 0 0 0 0 0 0 0 0 0 0.15 0"/>
<feBlend mode="normal" in2="BackgroundImageFix" result="effect1_dropShadow_698_4028"/>
<feBlend mode="normal" in="SourceGraphic" in2="effect1_dropShadow_698_4028" result="shape"/>
</filter>
<filter id="filter4_d_698_4028" x="437.125" y="418.08" width="169" height="169" filterUnits="userSpaceOnUse" color-interpolation-filters="sRGB">
<feFlood flood-opacity="0" result="BackgroundImageFix"/>
<feColorMatrix in="SourceAlpha" type="matrix" values="0 0 0 0 0 0 0 0 0 0 0 0 0 0 0 0 0 0 127 0" result="hardAlpha"/>
<feOffset dy="-5"/>
<feGaussianBlur stdDeviation="10"/>
<feComposite in2="hardAlpha" operator="out"/>
<feColorMatrix type="matrix" values="0 0 0 0 0 0 0 0 0 0 0 0 0 0 0 0 0 0 0.15 0"/>
<feBlend mode="normal" in2="BackgroundImageFix" result="effect1_dropShadow_698_4028"/>
<feBlend mode="normal" in="SourceGraphic" in2="effect1_dropShadow_698_4028" result="shape"/>
</filter>
</defs>
</svg>
