<svg width="1102" height="667" viewBox="0 0 1102 667" fill="none" xmlns="http://www.w3.org/2000/svg">
<g id="image_map all clear">
<g id="Group 2085665100">
<path id="Exclude_4" fill-rule="evenodd" clip-rule="evenodd" d="M586.195 367.166C590.081 368.047 594.158 367.344 597.526 365.214L666.838 321.378C672.388 317.868 679.46 318.42 684.376 322.461C679.46 318.419 672.388 317.868 666.838 321.378L597.526 365.214C594.158 367.344 590.081 368.046 586.195 367.166ZM686.34 324.406C686.34 324.406 686.34 324.406 686.34 324.406L696.894 336.967C697.14 337.259 697.397 337.542 697.663 337.814C697.397 337.542 697.14 337.26 696.894 336.967L696.894 336.967M751.751 354.615C749.208 361.557 749.285 369.193 751.976 376.088L753.218 379.272C760.387 397.641 746.839 417.471 727.121 417.471C721.425 417.471 715.865 419.207 711.182 422.447L679.735 444.203C669.475 451.302 656.03 451.807 645.266 445.5C635.479 439.766 623.391 439.626 613.474 445.133L558.207 475.826C527.424 492.92 491.412 498.047 457.082 490.221L438.89 486.075C431.721 484.441 424.295 484.284 417.064 485.613C398.982 488.937 380.449 482.86 367.847 469.473L366.274 467.802C359.78 460.904 355.358 452.491 353.288 443.501L383.601 383.206C384.708 381.003 386.342 379.107 388.357 377.686L442.285 339.649C445.756 337.201 450.102 336.339 454.245 337.277L454.245 337.277C450.102 336.339 445.756 337.201 442.285 339.649L388.356 377.686C386.341 379.107 384.708 381.003 383.6 383.206L353.288 443.501L344.486 461.008C340.749 468.442 331.674 471.413 324.263 467.629L322.374 466.665C314.822 462.809 305.577 465.975 301.974 473.651L291.546 495.87C290.61 497.865 290.125 500.04 290.125 502.243V591.488C290.125 599.105 295.833 605.512 303.399 606.389L583.268 638.814C586.41 639.179 589.587 638.54 592.344 636.99L844.812 495.073C852.125 490.961 854.645 481.651 850.403 474.412L788.664 369.069C786.677 365.679 783.439 363.203 779.647 362.175L751.751 354.615Z" fill="#FFC64C"/>
<g id="Rectangle 1954129082" filter="url(#filter4_d_698_4028)">
<rect x="457.125" y="443.08" width="129" height="129" rx="64.5" fill="white"/>
</g>
<g id="Group 2085665047">
<circle id="Ellipse 12" cx="521.083" cy="491.973" r="18.0555" fill="#FFC64C"/>
<path id="Ellipse 13" d="M557.758 525.516C557.758 545.756 541.274 557.988 520.941 557.988C500.608 557.988 484.125 545.756 484.125 525.516C484.125 505.277 500.608 488.869 520.941 488.869C541.274 488.869 557.758 505.277 557.758 525.516Z" fill="#FFC64C"/>
<path id="Intersect_5" fill-rule="evenodd" clip-rule="evenodd" d="M535.646 459.989C536.763 463.516 535.923 467.529 533.126 470.326C530.329 473.123 526.316 473.964 522.789 472.847C521.671 469.319 522.512 465.306 525.309 462.509C528.106 459.712 532.119 458.872 535.646 459.989Z" fill="#83DA37"/>
<ellipse id="Ellipse 14" cx="536.317" cy="512.708" rx="10.7205" ry="6.62977" fill="#FFA24C"/>
<ellipse id="Ellipse 15" cx="505.848" cy="512.708" rx="10.7205" ry="6.62977" fill="#FFA24C"/>
<ellipse id="Ellipse 16" cx="515.158" cy="507.63" rx="1.97482" ry="1.83376" fill="black"/>
<ellipse id="Ellipse 17" cx="526.725" cy="507.63" rx="1.97482" ry="1.83376" fill="black"/>
</g>
<g id="Group 2085665038">
<path id="Rectangle 1954129071_2" d="M635.125 540.08H587.125V584.08H635.125L624.725 562.08L635.125 540.08Z" fill="#E3E6ED"/>
<path id="Rectangle 1954129070_2" d="M401.125 540.08H449.125V584.08H401.125L411.525 562.08L401.125 540.08Z" fill="#E3E6ED"/>
<rect id="Rectangle 1954129069_2" x="435.125" y="528.08" width="166" height="44" fill="#F8F9FC"/>
<path id="&#234;&#176;&#144;&#234;&#183;&#164;&#235;&#185;&#155; &#235;&#147;&#164;&#237;&#140;&#144;" d="M480.371 542.488V546.424H477.971V550.168H473.915V539.08H477.971V542.488H480.371ZM471.299 542.104C471.299 547.744 466.139 549.952 459.083 549.952V546.52C463.955 546.472 467.171 545.128 467.171 542.992V542.68H459.083V539.32H471.299V542.104ZM459.875 559.576V550.888H477.971V559.576H459.875ZM463.931 554.224V556.24H473.915V554.224H463.931ZM497.217 544.936V542.296H482.937V539.08H501.297V544.936H497.217ZM502.545 548.728H498.009V550.096H501.345V556H486.993V556.84H501.561V559.576H483.033V553.624H497.385V552.784H482.985V550.096H486.345V548.728H481.809V545.656H502.545V548.728ZM494.049 550.096V548.728H490.305V550.096H494.049ZM524.719 539.08V550.24H520.663V539.08H524.719ZM518.287 539.32V549.136H505.567V539.32H509.527V541.048H514.327V539.32H518.287ZM509.527 545.944H514.327V544.168H509.527V545.944ZM525.367 556.552L524.383 559.816L515.239 557.56C512.959 559.024 509.575 559.576 506.191 559.576V556.288C509.119 556.288 511.975 555.76 513.343 554.536H506.407V551.368H513.487V549.856H517.615V551.368H524.719V554.536H517.807C517.735 554.68 517.687 554.824 517.639 554.944L525.367 556.552ZM554.195 539.08V541.984H539.987V543.28H554.435V546.184H535.955V539.08H554.195ZM555.443 547.048V550H534.707V547.048H555.443ZM554.243 550.84V556.264H539.891V557.008H554.459V559.576H535.931V554.128H550.283V553.384H535.883V550.84H554.243ZM577.041 543.232H579.441V547.168H577.041V554.248H572.985V539.08H577.041V543.232ZM572.025 550.576C570.969 551.032 568.761 551.296 566.817 551.296H557.817V547.984H559.665V542.656H557.961V539.32H571.377V542.656H569.673V547.84C570.609 547.744 571.425 547.552 572.025 547.312V550.576ZM563.529 542.656V547.984H565.809V542.656H563.529ZM563.073 552.496V555.928H577.329V559.576H558.945V552.496H563.073Z" fill="#5277FC"/>
<path id="Polygon 12_2" d="M449.125 572.142L449.125 584.142L435.125 572.142L449.125 572.142Z" fill="#9396A2"/>
<path id="Polygon 13_2" d="M587.125 572.08L587.125 584.08L601.125 572.08L587.125 572.08Z" fill="#9396A2"/>
</g>
</g>
</g>
<defs>
<filter id="filter0_d_698_4028" x="83.125" y="299.08" width="169" height="169" filterUnits="userSpaceOnUse" color-interpolation-filters="sRGB">
<feFlood flood-opacity="0" result="BackgroundImageFix"/>
<feColorMatrix in="SourceAlpha" type="matrix" values="0 0 0 0 0 0 0 0 0 0 0 0 0 0 0 0 0 0 127 0" result="hardAlpha"/>
<feOffset dy="-5"/>
<feGaussianBlur stdDeviation="10"/>
<feComposite in2="hardAlpha" operator="out"/>
<feColorMatrix type="matrix" values="0 0 0 0 0 0 0 0 0 0 0 0 0 0 0 0 0 0 0.15 0"/>
<feBlend mode="normal" in2="BackgroundImageFix" result="effect1_dropShadow_698_4028"/>
<feBlend mode="normal" in="SourceGraphic" in2="effect1_dropShadow_698_4028" result="shape"/>
</filter>
<filter id="filter1_d_698_4028" x="472.125" y="222.08" width="169" height="169" filterUnits="userSpaceOnUse" color-interpolation-filters="sRGB">
<feFlood flood-opacity="0" result="BackgroundImageFix"/>
<feColorMatrix in="SourceAlpha" type="matrix" values="0 0 0 0 0 0 0 0 0 0 0 0 0 0 0 0 0 0 127 0" result="hardAlpha"/>
<feOffset dy="-5"/>
<feGaussianBlur stdDeviation="10"/>
<feComposite in2="hardAlpha" operator="out"/>
<feColorMatrix type="matrix" values="0 0 0 0 0 0 0 0 0 0 0 0 0 0 0 0 0 0 0.15 0"/>
<feBlend mode="normal" in2="BackgroundImageFix" result="effect1_dropShadow_698_4028"/>
<feBlend mode="normal" in="SourceGraphic" in2="effect1_dropShadow_698_4028" result="shape"/>
</filter>
<filter id="filter2_d_698_4028" x="845.125" y="113.08" width="169" height="169" filterUnits="userSpaceOnUse" color-interpolation-filters="sRGB">
<feFlood flood-opacity="0" result="BackgroundImageFix"/>
<feColorMatrix in="SourceAlpha" type="matrix" values="0 0 0 0 0 0 0 0 0 0 0 0 0 0 0 0 0 0 127 0" result="hardAlpha"/>
<feOffset dy="-5"/>
<feGaussianBlur stdDeviation="10"/>
<feComposite in2="hardAlpha" operator="out"/>
<feColorMatrix type="matrix" values="0 0 0 0 0 0 0 0 0 0 0 0 0 0 0 0 0 0 0.15 0"/>
<feBlend mode="normal" in2="BackgroundImageFix" result="effect1_dropShadow_698_4028"/>
<feBlend mode="normal" in="SourceGraphic" in2="effect1_dropShadow_698_4028" result="shape"/>
</filter>
<filter id="filter3_d_698_4028" x="487.125" y="28.0803" width="169" height="169" filterUnits="userSpaceOnUse" color-interpolation-filters="sRGB">
<feFlood flood-opacity="0" result="BackgroundImageFix"/>
<feColorMatrix in="SourceAlpha" type="matrix" values="0 0 0 0 0 0 0 0 0 0 0 0 0 0 0 0 0 0 127 0" result="hardAlpha"/>
<feOffset dy="-5"/>
<feGaussianBlur stdDeviation="10"/>
<feComposite in2="hardAlpha" operator="out"/>
<feColorMatrix type="matrix" values="0 0 0 0 0 0 0 0 0 0 0 0 0 0 0 0 0 0 0.15 0"/>
<feBlend mode="normal" in2="BackgroundImageFix" result="effect1_dropShadow_698_4028"/>
<feBlend mode="normal" in="SourceGraphic" in2="effect1_dropShadow_698_4028" result="shape"/>
</filter>
<filter id="filter4_d_698_4028" x="437.125" y="418.08" width="169" height="169" filterUnits="userSpaceOnUse" color-interpolation-filters="sRGB">
<feFlood flood-opacity="0" result="BackgroundImageFix"/>
<feColorMatrix in="SourceAlpha" type="matrix" values="0 0 0 0 0 0 0 0 0 0 0 0 0 0 0 0 0 0 127 0" result="hardAlpha"/>
<feOffset dy="-5"/>
<feGaussianBlur stdDeviation="10"/>
<feComposite in2="hardAlpha" operator="out"/>
<feColorMatrix type="matrix" values="0 0 0 0 0 0 0 0 0 0 0 0 0 0 0 0 0 0 0.15 0"/>
<feBlend mode="normal" in2="BackgroundImageFix" result="effect1_dropShadow_698_4028"/>
<feBlend mode="normal" in="SourceGraphic" in2="effect1_dropShadow_698_4028" result="shape"/>
</filter>
</defs>
</svg>
