<svg width="1102" height="667" viewBox="0 0 1102 667" fill="none" xmlns="http://www.w3.org/2000/svg">
<g id="image_map all clear">
<g id="Group 2085665103">
<path id="Vector 37" d="M457.082 490.221L438.889 486.074C431.721 484.44 424.295 484.283 417.064 485.613C398.982 488.937 380.449 482.859 367.847 469.473L366.273 467.802C354.838 455.655 349.829 438.811 352.767 422.389L355.963 404.526C357.159 397.846 354.846 391.019 349.837 386.441C343.461 380.614 341.603 371.325 345.247 363.495L371.727 306.584C386.073 275.754 414.418 253.744 447.841 247.482L531.194 231.866C541.445 229.945 552.045 231.828 561.007 237.162C571.37 243.331 583.854 244.847 595.393 241.339L653.351 223.72C675.102 217.107 698.605 219.599 718.487 230.625C737.268 241.041 751.343 258.259 757.817 278.736L759.885 285.278C765.222 302.159 764.717 320.347 758.451 336.906L751.863 354.313C749.206 361.335 749.246 369.093 751.976 376.088L753.218 379.272C760.387 397.641 746.839 417.471 727.12 417.471C721.425 417.471 715.865 419.206 711.181 422.447L679.735 444.203C669.475 451.301 656.03 451.807 645.266 445.5C635.479 439.765 623.391 439.626 613.474 445.133L558.206 475.825C527.423 492.92 491.412 498.047 457.082 490.221Z" fill="#87D56E"/>
<g id="Rectangle 1954129083" filter="url(#filter1_d_698_4028)">
<rect x="492.125" y="247.08" width="129" height="129" rx="64.5" fill="white"/>
</g>
<g id="Group 2085664992">
<path id="Polygon 1" d="M538.397 280.958C546.383 267.498 565.867 267.498 573.853 280.958L600.006 325.034C608.159 338.775 598.256 356.167 582.278 356.167H529.972C513.994 356.167 504.091 338.775 512.244 325.034L538.397 280.958Z" fill="#87D56E"/>
<ellipse id="Ellipse 18_3" cx="572.258" cy="311.578" rx="11.3527" ry="7.02075" fill="#F8A69C"/>
<ellipse id="Ellipse 19_5" cx="539.992" cy="311.578" rx="11.3527" ry="7.02075" fill="#F8A69C"/>
<ellipse id="Ellipse 20_3" cx="549.851" cy="306.201" rx="2.09129" ry="1.94191" fill="black"/>
<ellipse id="Ellipse 21_2" cx="562.1" cy="306.201" rx="2.09129" ry="1.94191" fill="black"/>
<path id="Intersect_2" fill-rule="evenodd" clip-rule="evenodd" d="M535.378 291.844C539.629 291.844 543.458 290.039 546.142 287.155C548.267 290.857 552.259 293.351 556.833 293.351C561.407 293.351 565.399 290.857 567.523 287.155C570.207 290.039 574.037 291.844 578.288 291.844C578.443 291.844 578.598 291.841 578.752 291.837L573.853 283.58C565.867 270.12 546.383 270.12 538.397 283.58L533.56 291.732C534.155 291.806 534.762 291.844 535.378 291.844Z" fill="white"/>
<path id="Polygon 2" d="M539.675 281.717C547.086 269.227 565.164 269.227 572.575 281.717L598.728 325.792C606.293 338.543 597.104 354.681 582.278 354.681H529.972C515.146 354.681 505.957 338.543 513.522 325.792L539.675 281.717Z" stroke="#87D56E" stroke-width="2.97204"/>
</g>
<g id="Group 2085665041">
<path id="Rectangle 1954129078" d="M694.321 344.08H646.321V388.08H694.321L683.921 366.08L694.321 344.08Z" fill="#E3E6ED"/>
<path id="Rectangle 1954129079" d="M413.125 344.08H461.125V388.08H413.125L423.525 366.08L413.125 344.08Z" fill="#E3E6ED"/>
<rect id="Rectangle 1954129080" x="447.125" y="332.08" width="213" height="44" fill="#F8F9FC"/>
<path id="&#234;&#181;&#172;&#235;&#166;&#132;&#235;&#132;&#136;&#235;&#168;&#184; &#236;&#130;&#176;&#235;&#167;&#136;&#235;&#163;&#168;" d="M485.973 353.016V347.088H471.789V343.32H490.173V353.016H485.973ZM491.373 354.24V358.008H482.973V364.056H478.773V358.008H470.637V354.24H491.373ZM513.211 343.08V348.72H498.955V349.56H513.427V352.104H494.995V346.488H509.251V345.624H494.947V343.08H513.211ZM514.459 352.944V355.896H493.723V352.944H514.459ZM513.259 356.736V363.576H494.923V356.736H513.259ZM498.907 360.72H509.275V359.592H498.907V360.72ZM532.673 343.08H536.729V363.576H532.673V353.448H526.337V349.536H532.673V343.08ZM521.801 358.896H525.569C527.513 358.896 529.625 358.536 530.873 357.96V361.632C529.625 362.256 527.417 362.616 525.449 362.616H517.625V343.44H521.801V358.896ZM555.759 343.08H559.815V363.576H555.759V354.432H552.639V362.616H540.711V343.56H552.639V350.64H555.759V343.08ZM548.583 358.848V347.328H544.767V358.848H548.583ZM588.955 346.944H591.355V350.88H588.955V358.248H584.899V343.08H588.955V346.944ZM576.859 351.216C575.155 353.664 572.659 355.32 569.707 355.464V351.696C572.947 351.312 575.083 347.688 575.155 343.176L579.235 343.416C579.235 345 578.971 346.56 578.467 348L584.299 352.344L581.875 355.176L576.859 351.216ZM574.987 356.4V359.928H589.243V363.576H570.859V356.4H574.987ZM614.441 350.568V354.504H612.041V363.576H607.985V343.08H612.041V350.568H614.441ZM593.489 362.616V343.56H605.417V362.616H593.489ZM597.545 347.328V358.848H601.361V347.328H597.545ZM631.455 347.808V346.632H617.055V343.32H635.415V350.904H621.063V352.08H635.655V355.392H617.103V347.808H631.455ZM636.615 356.664V360.312H628.335V364.056H624.159V360.312H615.879V356.664H636.615Z" fill="#5277FC"/>
<path id="Polygon 18" d="M461.125 376.142L461.125 388.142L447.125 376.142L461.125 376.142Z" fill="#A7A9B2"/>
<path id="Polygon 19" d="M646.321 376.081L646.321 388.081L660.321 376.08L646.321 376.081Z" fill="#A7A9B2"/>
</g>
</g>
</g>
<defs>
<filter id="filter0_d_698_4028" x="83.125" y="299.08" width="169" height="169" filterUnits="userSpaceOnUse" color-interpolation-filters="sRGB">
<feFlood flood-opacity="0" result="BackgroundImageFix"/>
<feColorMatrix in="SourceAlpha" type="matrix" values="0 0 0 0 0 0 0 0 0 0 0 0 0 0 0 0 0 0 127 0" result="hardAlpha"/>
<feOffset dy="-5"/>
<feGaussianBlur stdDeviation="10"/>
<feComposite in2="hardAlpha" operator="out"/>
<feColorMatrix type="matrix" values="0 0 0 0 0 0 0 0 0 0 0 0 0 0 0 0 0 0 0.15 0"/>
<feBlend mode="normal" in2="BackgroundImageFix" result="effect1_dropShadow_698_4028"/>
<feBlend mode="normal" in="SourceGraphic" in2="effect1_dropShadow_698_4028" result="shape"/>
</filter>
<filter id="filter1_d_698_4028" x="472.125" y="222.08" width="169" height="169" filterUnits="userSpaceOnUse" color-interpolation-filters="sRGB">
<feFlood flood-opacity="0" result="BackgroundImageFix"/>
<feColorMatrix in="SourceAlpha" type="matrix" values="0 0 0 0 0 0 0 0 0 0 0 0 0 0 0 0 0 0 127 0" result="hardAlpha"/>
<feOffset dy="-5"/>
<feGaussianBlur stdDeviation="10"/>
<feComposite in2="hardAlpha" operator="out"/>
<feColorMatrix type="matrix" values="0 0 0 0 0 0 0 0 0 0 0 0 0 0 0 0 0 0 0.15 0"/>
<feBlend mode="normal" in2="BackgroundImageFix" result="effect1_dropShadow_698_4028"/>
<feBlend mode="normal" in="SourceGraphic" in2="effect1_dropShadow_698_4028" result="shape"/>
</filter>
<filter id="filter2_d_698_4028" x="845.125" y="113.08" width="169" height="169" filterUnits="userSpaceOnUse" color-interpolation-filters="sRGB">
<feFlood flood-opacity="0" result="BackgroundImageFix"/>
<feColorMatrix in="SourceAlpha" type="matrix" values="0 0 0 0 0 0 0 0 0 0 0 0 0 0 0 0 0 0 127 0" result="hardAlpha"/>
<feOffset dy="-5"/>
<feGaussianBlur stdDeviation="10"/>
<feComposite in2="hardAlpha" operator="out"/>
<feColorMatrix type="matrix" values="0 0 0 0 0 0 0 0 0 0 0 0 0 0 0 0 0 0 0.15 0"/>
<feBlend mode="normal" in2="BackgroundImageFix" result="effect1_dropShadow_698_4028"/>
<feBlend mode="normal" in="SourceGraphic" in2="effect1_dropShadow_698_4028" result="shape"/>
</filter>
<filter id="filter3_d_698_4028" x="487.125" y="28.0803" width="169" height="169" filterUnits="userSpaceOnUse" color-interpolation-filters="sRGB">
<feFlood flood-opacity="0" result="BackgroundImageFix"/>
<feColorMatrix in="SourceAlpha" type="matrix" values="0 0 0 0 0 0 0 0 0 0 0 0 0 0 0 0 0 0 127 0" result="hardAlpha"/>
<feOffset dy="-5"/>
<feGaussianBlur stdDeviation="10"/>
<feComposite in2="hardAlpha" operator="out"/>
<feColorMatrix type="matrix" values="0 0 0 0 0 0 0 0 0 0 0 0 0 0 0 0 0 0 0.15 0"/>
<feBlend mode="normal" in2="BackgroundImageFix" result="effect1_dropShadow_698_4028"/>
<feBlend mode="normal" in="SourceGraphic" in2="effect1_dropShadow_698_4028" result="shape"/>
</filter>
<filter id="filter4_d_698_4028" x="437.125" y="418.08" width="169" height="169" filterUnits="userSpaceOnUse" color-interpolation-filters="sRGB">
<feFlood flood-opacity="0" result="BackgroundImageFix"/>
<feColorMatrix in="SourceAlpha" type="matrix" values="0 0 0 0 0 0 0 0 0 0 0 0 0 0 0 0 0 0 127 0" result="hardAlpha"/>
<feOffset dy="-5"/>
<feGaussianBlur stdDeviation="10"/>
<feComposite in2="hardAlpha" operator="out"/>
<feColorMatrix type="matrix" values="0 0 0 0 0 0 0 0 0 0 0 0 0 0 0 0 0 0 0.15 0"/>
<feBlend mode="normal" in2="BackgroundImageFix" result="effect1_dropShadow_698_4028"/>
<feBlend mode="normal" in="SourceGraphic" in2="effect1_dropShadow_698_4028" result="shape"/>
</filter>
</defs>
</svg>
