<svg width="1103" height="667" viewBox="0 0 1103 667" fill="none" xmlns="http://www.w3.org/2000/svg">
<g id="image_map grey all">
<g id="Group 2085665093">
<g id="Group 2085665088">
<g id="Exclude">
<mask id="path-1-inside-1_694_3924" fill="white">
<path fill-rule="evenodd" clip-rule="evenodd" d="M363.261 175.175L382.752 190.404C385.886 192.852 387.919 196.445 388.405 200.392L397.189 271.802C386.596 281.231 377.873 292.828 371.723 306.045L345.242 362.956C341.599 370.786 343.457 380.076 349.832 385.902C354.841 390.48 357.154 397.307 355.959 403.988L352.763 421.851C351.227 430.432 351.862 439.128 354.449 447.209L346.828 462.332C343.088 469.753 334.029 472.719 326.624 468.948L324.685 467.96C317.139 464.116 307.909 467.277 304.304 474.94L293.876 497.106C292.936 499.103 292.449 501.284 292.449 503.491V598.706C292.449 603.238 290.4 607.527 286.875 610.374L221.95 662.822C217.41 666.49 211.154 667.19 205.914 664.618L8.39031 567.654C2.80786 564.913 -0.504687 559.013 0.0629189 552.82L15.3544 385.982C15.6316 382.958 16.8203 380.089 18.7633 377.755L122.744 252.842C123.622 251.787 124.641 250.858 125.772 250.08L245.341 167.833C247.363 166.443 249.695 165.569 252.132 165.29L340.944 155.098C347.485 154.348 353.75 157.95 356.393 163.98L358.758 169.376C359.755 171.652 361.303 173.645 363.261 175.175Z"/>
</mask>
<path fill-rule="evenodd" clip-rule="evenodd" d="M363.261 175.175L382.752 190.404C385.886 192.852 387.919 196.445 388.405 200.392L397.189 271.802C386.596 281.231 377.873 292.828 371.723 306.045L345.242 362.956C341.599 370.786 343.457 380.076 349.832 385.902C354.841 390.48 357.154 397.307 355.959 403.988L352.763 421.851C351.227 430.432 351.862 439.128 354.449 447.209L346.828 462.332C343.088 469.753 334.029 472.719 326.624 468.948L324.685 467.96C317.139 464.116 307.909 467.277 304.304 474.94L293.876 497.106C292.936 499.103 292.449 501.284 292.449 503.491V598.706C292.449 603.238 290.4 607.527 286.875 610.374L221.95 662.822C217.41 666.49 211.154 667.19 205.914 664.618L8.39031 567.654C2.80786 564.913 -0.504687 559.013 0.0629189 552.82L15.3544 385.982C15.6316 382.958 16.8203 380.089 18.7633 377.755L122.744 252.842C123.622 251.787 124.641 250.858 125.772 250.08L245.341 167.833C247.363 166.443 249.695 165.569 252.132 165.29L340.944 155.098C347.485 154.348 353.75 157.95 356.393 163.98L358.758 169.376C359.755 171.652 361.303 173.645 363.261 175.175Z" fill="#9396A2"/>
<path d="M382.752 190.404L388.909 182.524L388.909 182.524L382.752 190.404ZM363.261 175.175L369.418 167.295L369.418 167.295L363.261 175.175ZM388.405 200.392L398.33 199.172V199.172L388.405 200.392ZM397.189 271.802L403.838 279.272L407.755 275.785L407.114 270.581L397.189 271.802ZM371.723 306.045L362.656 301.826L371.723 306.045ZM345.242 362.956L336.176 358.737L345.242 362.956ZM349.832 385.902L343.086 393.284L343.086 393.284L349.832 385.902ZM355.959 403.988L346.115 402.226V402.226L355.959 403.988ZM352.763 421.851L362.606 423.612L362.606 423.612L352.763 421.851ZM354.449 447.209L363.38 451.709L365.221 448.056L363.973 444.159L354.449 447.209ZM346.828 462.332L355.758 466.833L355.758 466.833L346.828 462.332ZM326.624 468.948L331.163 460.037L326.624 468.948ZM324.685 467.96L320.147 476.871L320.147 476.871L324.685 467.96ZM304.304 474.94L295.256 470.683V470.683L304.304 474.94ZM293.876 497.106L284.827 492.849L284.827 492.849L293.876 497.106ZM286.875 610.374L280.591 602.595H280.591L286.875 610.374ZM221.95 662.822L228.234 670.601H228.234L221.95 662.822ZM205.914 664.618L201.508 673.595H201.508L205.914 664.618ZM8.39031 567.654L12.797 558.677H12.797L8.39031 567.654ZM0.0629189 552.82L-9.89534 551.907L0.0629189 552.82ZM15.3544 385.982L5.39614 385.069L15.3544 385.982ZM18.7633 377.755L11.0777 371.357H11.0777L18.7633 377.755ZM122.744 252.842L130.43 259.24L130.43 259.24L122.744 252.842ZM125.772 250.08L120.105 241.841L120.105 241.841L125.772 250.08ZM245.341 167.833L251.008 176.072L251.009 176.072L245.341 167.833ZM252.132 165.29L250.992 155.355V155.355L252.132 165.29ZM340.944 155.098L342.084 165.033L340.944 155.098ZM356.393 163.98L347.234 167.994V167.994L356.393 163.98ZM358.758 169.376L367.917 165.362V165.362L358.758 169.376ZM388.909 182.524L369.418 167.295L357.104 183.055L376.596 198.284L388.909 182.524ZM398.33 199.172C397.521 192.593 394.132 186.605 388.909 182.524L376.596 198.284C377.64 199.1 378.318 200.298 378.48 201.613L398.33 199.172ZM407.114 270.581L398.33 199.172L378.48 201.613L387.264 273.023L407.114 270.581ZM390.54 264.333C378.942 274.657 369.39 287.355 362.656 301.826L380.789 310.264C386.356 298.3 394.25 287.806 403.838 279.272L390.54 264.333ZM362.656 301.826L336.176 358.737L354.309 367.175L380.789 310.264L362.656 301.826ZM336.176 358.737C330.69 370.526 333.487 384.512 343.086 393.284L356.578 378.521C353.426 375.64 352.507 371.046 354.309 367.175L336.176 358.737ZM343.086 393.284C345.563 395.548 346.706 398.923 346.115 402.226L365.802 405.749C367.602 395.691 364.12 385.413 356.578 378.521L343.086 393.284ZM346.115 402.226L342.919 420.089L362.606 423.612L365.802 405.749L346.115 402.226ZM342.919 420.089C341.092 430.298 341.848 440.646 344.926 450.258L363.973 444.159C361.876 437.61 361.362 430.565 362.606 423.612L342.919 420.089ZM355.758 466.833L363.38 451.709L345.519 442.708L337.898 457.832L355.758 466.833ZM322.086 477.858C334.426 484.144 349.525 479.2 355.758 466.833L337.898 457.832C336.651 460.305 333.631 461.294 331.163 460.037L322.086 477.858ZM320.147 476.871L322.086 477.858L331.163 460.037L329.224 459.049L320.147 476.871ZM313.353 479.197C314.555 476.643 317.631 475.589 320.147 476.871L329.224 459.049C316.647 452.643 301.264 457.912 295.256 470.683L313.353 479.197ZM302.925 501.363L313.353 479.197L295.256 470.683L284.827 492.849L302.925 501.363ZM302.449 503.491C302.449 502.755 302.611 502.029 302.925 501.363L284.827 492.849C283.261 496.178 282.449 499.812 282.449 503.491H302.449ZM302.449 598.706V503.491H282.449V598.706H302.449ZM293.159 618.153C299.034 613.407 302.449 606.259 302.449 598.706H282.449C282.449 600.216 281.766 601.646 280.591 602.595L293.159 618.153ZM228.234 670.601L293.159 618.153L280.591 602.595L215.666 655.043L228.234 670.601ZM201.508 673.595C210.24 677.882 220.667 676.714 228.234 670.601L215.666 655.043C214.153 656.265 212.068 656.499 210.321 655.642L201.508 673.595ZM3.98365 576.631L201.508 673.595L210.321 655.642L12.797 558.677L3.98365 576.631ZM-9.89534 551.907C-10.8414 562.228 -5.32044 572.063 3.98366 576.631L12.797 558.677C10.9362 557.764 9.83198 555.797 10.0212 553.732L-9.89534 551.907ZM5.39614 385.069L-9.89534 551.907L10.0212 553.732L25.3127 386.895L5.39614 385.069ZM11.0777 371.357C7.83933 375.247 5.85814 380.029 5.39614 385.069L25.3127 386.895C25.4051 385.887 25.8013 384.93 26.449 384.152L11.0777 371.357ZM115.059 246.444L11.0777 371.357L26.449 384.152L130.43 259.24L115.059 246.444ZM120.105 241.841C118.22 243.137 116.522 244.686 115.059 246.444L130.43 259.24C130.723 258.888 131.062 258.578 131.439 258.319L120.105 241.841ZM239.674 159.594L120.105 241.841L131.439 258.319L251.008 176.072L239.674 159.594ZM250.992 155.355C246.929 155.821 243.043 157.277 239.674 159.594L251.009 176.072C251.682 175.609 252.46 175.318 253.272 175.225L250.992 155.355ZM339.804 145.164L250.992 155.355L253.272 175.225L342.084 165.033L339.804 145.164ZM365.552 159.966C361.148 149.916 350.705 143.913 339.804 145.164L342.084 165.033C344.264 164.783 346.353 165.984 347.234 167.994L365.552 159.966ZM367.917 165.362L365.552 159.966L347.234 167.994L349.598 173.389L367.917 165.362ZM369.418 167.295C368.765 166.785 368.249 166.121 367.917 165.362L349.598 173.389C351.261 177.183 353.84 180.505 357.104 183.055L369.418 167.295Z" fill="#FF6969" mask="url(#path-1-inside-1_694_3924)"/>
</g>
</g>
<g id="Group 2085665087">
<path id="Rectangle 1954129071" d="M283.811 427.125H235.811V471.125H283.811L273.411 449.125L283.811 427.125Z" fill="#E3E6ED"/>
<path id="Rectangle 1954129070" d="M49.8105 427.125H97.8105V471.125H49.8105L60.2105 449.125L49.8105 427.125Z" fill="#E3E6ED"/>
<rect id="Rectangle 1954129069" x="83.8105" y="415.125" width="166" height="44" fill="#F8F9FC"/>
<path id="&#235;&#143;&#153;&#235;&#176;&#177;&#234;&#189;&#131; &#236;&#160;&#149;&#236;&#155;&#144;" d="M119.792 434.885H128.144V438.005H107.408V434.885H115.76V433.757H108.656V426.125H126.896V429.221H112.688V430.661H127.136V433.757H119.792V434.885ZM117.776 438.797C123.32 438.797 127.184 439.901 127.184 442.853C127.184 445.805 123.32 446.909 117.776 446.909C112.232 446.909 108.368 445.805 108.368 442.853C108.368 439.901 112.232 438.797 117.776 438.797ZM117.776 443.885C120.776 443.885 122.864 443.597 122.864 442.853C122.864 442.133 120.776 441.821 117.776 441.821C114.776 441.821 112.688 442.133 112.688 442.853C112.688 443.597 114.776 443.885 117.776 443.885ZM147.102 426.125H150.894V438.941H147.102V434.045H145.398V438.725H141.654V426.221H145.398V430.277H147.102V426.125ZM140.262 426.365V438.173H130.854V426.365H134.502V429.053H136.614V426.365H140.262ZM134.502 434.981H136.614V432.173H134.502V434.981ZM131.934 443.045V439.661H150.894V446.861H146.886V443.045H131.934ZM158.212 432.341V429.221H154.564V426.125H162.172V432.341H158.212ZM169.204 432.581V429.221H163.108V426.125H173.164V432.581H169.204ZM167.26 433.469H174.316V436.565H153.58V433.469H163.252V430.685H167.26V433.469ZM166.036 441.365L165.82 441.821L173.884 443.813L172.828 446.837L163.612 444.173C161.356 445.733 157.996 446.621 154.468 446.621V443.525C157.54 443.525 160.372 442.733 161.692 441.365H154.612V438.437H161.908V437.213H165.988V438.437H173.284V441.365H166.036ZM190.737 433.997C189.129 435.869 186.681 437.237 183.753 437.309V433.757C186.393 433.613 188.145 431.669 188.553 429.725H184.041V426.365H197.097V429.293H199.257V426.125H203.313V437.597H199.257V432.749H196.521V429.725H192.657C192.609 430.157 192.537 430.565 192.393 430.997L197.865 434.117L195.921 437.093L190.737 433.997ZM194.145 437.885C199.377 437.885 203.505 439.037 203.505 442.373C203.505 445.709 199.377 446.861 194.145 446.861C188.913 446.861 184.785 445.709 184.785 442.373C184.785 439.037 188.913 437.885 194.145 437.885ZM194.145 443.669C196.905 443.669 199.137 443.309 199.137 442.373C199.137 441.461 196.905 441.077 194.145 441.077C191.385 441.077 189.153 441.461 189.153 442.373C189.153 443.309 191.385 443.669 194.145 443.669ZM213.775 434.261C210.079 434.261 207.487 432.869 207.487 430.085C207.487 427.301 210.079 425.909 213.775 425.909C217.471 425.909 220.063 427.301 220.063 430.085C220.063 432.869 217.471 434.261 213.775 434.261ZM217.111 438.653H222.391V426.125H226.447V442.037H222.391V441.461H217.111V438.653ZM213.775 428.885C212.335 428.885 211.399 429.269 211.399 430.085C211.399 430.901 212.335 431.285 213.775 431.285C215.215 431.285 216.151 430.901 216.151 430.085C216.151 429.269 215.215 428.885 213.775 428.885ZM212.167 443.237H226.735V446.621H208.111V440.117H211.375V438.077H206.479V434.957H215.911C217.807 434.957 219.943 434.765 221.215 434.213V437.333C219.943 437.885 217.879 438.077 215.839 438.077H215.407V441.173H212.167V443.237Z" fill="#5277FC"/>
<path id="Polygon 12" d="M97.8105 459.187L97.8106 471.187L83.8105 459.187L97.8105 459.187Z" fill="#4A4C54"/>
<path id="Polygon 13" d="M235.81 459.125L235.81 471.125L249.81 459.125L235.81 459.125Z" fill="#4A4C54"/>
</g>
</g>
<g id="Group 2085665089">
<path id="Exclude_2" fill-rule="evenodd" clip-rule="evenodd" d="M686.655 324.325C681.828 318.58 673.496 317.286 667.153 321.297C673.496 317.286 681.828 318.58 686.655 324.325ZM752.067 354.534C749.523 361.477 749.6 369.113 752.291 376.008L753.533 379.191C760.702 397.561 747.154 417.39 727.436 417.39C721.74 417.39 716.18 419.126 711.497 422.367L680.05 444.123C669.79 451.221 656.346 451.727 645.581 445.42C635.794 439.685 623.707 439.546 613.79 445.053L558.522 475.745C527.739 492.84 491.728 497.966 457.397 490.141L439.205 485.994C432.036 484.36 424.611 484.203 417.38 485.532C399.298 488.857 380.764 482.779 368.162 469.393L366.589 467.721C360.095 460.823 355.673 452.411 353.603 443.421L344.801 460.927C341.064 468.362 331.989 471.333 324.578 467.549L322.69 466.585C315.137 462.728 305.892 465.894 302.289 473.571L291.862 495.79C290.926 497.784 290.44 499.96 290.44 502.163V591.408C290.44 599.024 296.148 605.432 303.714 606.308L583.583 638.734C586.725 639.098 589.902 638.459 592.66 636.909L845.127 494.992C852.441 490.881 854.96 481.57 850.718 474.332L788.979 368.988C786.992 365.598 783.755 363.123 779.962 362.095L752.067 354.534ZM383.916 383.126C385.023 380.923 386.657 379.027 388.672 377.606V377.606C386.657 379.027 385.023 380.923 383.916 383.126V383.126ZM454.56 337.197C450.418 336.258 446.072 337.12 442.601 339.568C446.072 337.12 450.418 336.258 454.56 337.197Z" fill="#A7A9B2"/>
<g id="Group 2085665038">
<path id="Rectangle 1954129071_2" d="M634.07 540H586.07V584H634.07L623.67 562L634.07 540Z" fill="#E3E6ED"/>
<path id="Rectangle 1954129070_2" d="M400.07 540H448.07V584H400.07L410.47 562L400.07 540Z" fill="#E3E6ED"/>
<rect id="Rectangle 1954129069_2" x="434.07" y="528" width="166" height="44" fill="#F8F9FC"/>
<path id="&#234;&#176;&#144;&#234;&#183;&#164;&#235;&#185;&#155; &#235;&#147;&#164;&#237;&#140;&#144;" d="M479.316 542.408V546.344H476.916V550.088H472.86V539H476.916V542.408H479.316ZM470.244 542.024C470.244 547.664 465.084 549.872 458.028 549.872V546.44C462.9 546.392 466.116 545.048 466.116 542.912V542.6H458.028V539.24H470.244V542.024ZM458.82 559.496V550.808H476.916V559.496H458.82ZM462.876 554.144V556.16H472.86V554.144H462.876ZM496.162 544.856V542.216H481.882V539H500.242V544.856H496.162ZM501.49 548.648H496.954V550.016H500.29V555.92H485.938V556.76H500.506V559.496H481.978V553.544H496.33V552.704H481.93V550.016H485.29V548.648H480.754V545.576H501.49V548.648ZM492.994 550.016V548.648H489.25V550.016H492.994ZM523.664 539V550.16H519.608V539H523.664ZM517.232 539.24V549.056H504.512V539.24H508.472V540.968H513.272V539.24H517.232ZM508.472 545.864H513.272V544.088H508.472V545.864ZM524.312 556.472L523.328 559.736L514.184 557.48C511.904 558.944 508.52 559.496 505.136 559.496V556.208C508.064 556.208 510.92 555.68 512.288 554.456H505.352V551.288H512.432V549.776H516.56V551.288H523.664V554.456H516.752C516.68 554.6 516.632 554.744 516.584 554.864L524.312 556.472ZM553.141 539V541.904H538.933V543.2H553.381V546.104H534.901V539H553.141ZM554.389 546.968V549.92H533.653V546.968H554.389ZM553.189 550.76V556.184H538.837V556.928H553.405V559.496H534.877V554.048H549.229V553.304H534.829V550.76H553.189ZM575.987 543.152H578.387V547.088H575.987V554.168H571.931V539H575.987V543.152ZM570.971 550.496C569.915 550.952 567.707 551.216 565.763 551.216H556.763V547.904H558.611V542.576H556.907V539.24H570.323V542.576H568.619V547.76C569.555 547.664 570.371 547.472 570.971 547.232V550.496ZM562.475 542.576V547.904H564.755V542.576H562.475ZM562.019 552.416V555.848H576.275V559.496H557.891V552.416H562.019Z" fill="#5277FC"/>
<path id="Polygon 12_2" d="M448.07 572.062L448.07 584.062L434.07 572.062L448.07 572.062Z" fill="#9396A2"/>
<path id="Polygon 13_2" d="M586.07 572L586.07 584L600.07 572L586.07 572Z" fill="#9396A2"/>
</g>
</g>
<g id="Group 2085665090">
<path id="Vector 37" d="M457.397 490.141L439.205 485.994C432.036 484.36 424.611 484.203 417.38 485.532C399.298 488.857 380.764 482.779 368.162 469.392L366.589 467.721C355.154 455.574 350.144 438.731 353.083 422.309L356.279 404.446C357.474 397.766 355.161 390.939 350.152 386.36C343.777 380.534 341.919 371.245 345.562 363.414L372.043 306.503C386.388 275.673 414.733 253.663 448.156 247.401L531.51 231.785C541.76 229.865 552.36 231.748 561.322 237.082C571.686 243.25 584.169 244.766 595.708 241.259L653.667 223.639C675.418 217.027 698.921 219.519 718.802 230.545C737.583 240.961 751.659 258.178 758.133 278.656L760.201 285.197C765.538 302.079 765.032 320.266 758.766 336.825L752.179 354.232C749.521 361.255 749.561 369.013 752.291 376.007L753.533 379.191C760.702 397.56 747.154 417.39 727.436 417.39C721.74 417.39 716.18 419.126 711.497 422.366L680.05 444.122C669.79 451.221 656.346 451.727 645.581 445.419C635.794 439.685 623.707 439.545 613.79 445.052L558.522 475.745C527.739 492.84 491.728 497.966 457.397 490.141Z" fill="#C3C6D0"/>
<g id="Group 2085665041">
<path id="Rectangle 1954129078" d="M693.267 344H645.267V388H693.267L682.867 366L693.267 344Z" fill="#E3E6ED"/>
<path id="Rectangle 1954129079" d="M412.07 344H460.07V388H412.07L422.47 366L412.07 344Z" fill="#E3E6ED"/>
<rect id="Rectangle 1954129080" x="446.07" y="332" width="213" height="44" fill="#F8F9FC"/>
<path id="&#234;&#181;&#172;&#235;&#166;&#132;&#235;&#132;&#136;&#235;&#168;&#184; &#236;&#130;&#176;&#235;&#167;&#136;&#235;&#163;&#168;" d="M484.918 352.936V347.008H470.734V343.24H489.118V352.936H484.918ZM490.318 354.16V357.928H481.918V363.976H477.718V357.928H469.582V354.16H490.318ZM512.156 343V348.64H497.9V349.48H512.372V352.024H493.94V346.408H508.196V345.544H493.892V343H512.156ZM513.404 352.864V355.816H492.668V352.864H513.404ZM512.204 356.656V363.496H493.868V356.656H512.204ZM497.852 360.64H508.22V359.512H497.852V360.64ZM531.618 343H535.674V363.496H531.618V353.368H525.282V349.456H531.618V343ZM520.746 358.816H524.514C526.458 358.816 528.57 358.456 529.818 357.88V361.552C528.57 362.176 526.362 362.536 524.394 362.536H516.57V343.36H520.746V358.816ZM554.704 343H558.76V363.496H554.704V354.352H551.584V362.536H539.656V343.48H551.584V350.56H554.704V343ZM547.528 358.768V347.248H543.712V358.768H547.528ZM587.901 346.864H590.301V350.8H587.901V358.168H583.845V343H587.901V346.864ZM575.805 351.136C574.101 353.584 571.605 355.24 568.653 355.384V351.616C571.893 351.232 574.029 347.608 574.101 343.096L578.181 343.336C578.181 344.92 577.917 346.48 577.413 347.92L583.245 352.264L580.821 355.096L575.805 351.136ZM573.933 356.32V359.848H588.189V363.496H569.805V356.32H573.933ZM613.387 350.488V354.424H610.987V363.496H606.931V343H610.987V350.488H613.387ZM592.435 362.536V343.48H604.363V362.536H592.435ZM596.491 347.248V358.768H600.307V347.248H596.491ZM630.4 347.728V346.552H616V343.24H634.36V350.824H620.008V352H634.6V355.312H616.048V347.728H630.4ZM635.56 356.584V360.232H627.28V363.976H623.104V360.232H614.824V356.584H635.56Z" fill="#5277FC"/>
<path id="Polygon 18" d="M460.07 376.062L460.07 388.062L446.07 376.062L460.07 376.062Z" fill="#A7A9B2"/>
<path id="Polygon 19" d="M645.266 376L645.266 388L659.267 376L645.266 376Z" fill="#A7A9B2"/>
</g>
</g>
<g id="Group 2085665092">
<path id="Exclude_3" fill-rule="evenodd" clip-rule="evenodd" d="M757.509 276.761L767.098 271.964C774.554 268.235 777.538 259.142 773.743 251.72L769.691 243.797C768.304 241.085 767.776 238.016 768.176 234.997L774.097 190.295L780.065 145.242C780.436 142.443 780.009 139.595 778.834 137.028L744.889 62.8871C741.365 55.1898 744.905 46.1028 752.707 42.818L851.622 1.17525C855.935 -0.640353 860.848 -0.339407 864.906 1.98901L984.741 70.7352C986.874 71.9583 988.672 73.6867 989.98 75.7682L1042.6 159.55C1043.03 160.232 1043.51 160.877 1044.04 161.481L1098.33 223.179C1102.08 227.436 1103.1 233.441 1100.98 238.699L1013.13 456.509C1011.17 461.365 1006.82 464.848 1001.65 465.699L868.633 487.619C862.508 488.628 856.394 485.76 853.254 480.405L789.081 370.941C787.093 367.551 783.856 365.077 780.063 364.049L751.479 356.304C751.687 355.607 751.92 354.917 752.179 354.233L758.766 336.825C765.033 320.266 765.538 302.079 760.201 285.197L758.133 278.656C757.932 278.021 757.724 277.39 757.509 276.761Z" fill="#9396A2"/>
<g id="Group 2085665039">
<path id="Rectangle 1954129075" d="M1052.07 236H1009.07V280H1052.07L1042.75 258L1052.07 236Z" fill="#E3E6ED"/>
<path id="Rectangle 1954129076" d="M804.07 236H847.07V280H804.07L813.387 258L804.07 236Z" fill="#E3E6ED"/>
<rect id="Rectangle 1954129077" x="833.07" y="224" width="190" height="44" fill="#F8F9FC"/>
<path id="&#235;&#139;&#172;&#235;&#185;&#155;&#236;&#158;&#160;&#236;&#136;&#152; &#235;&#167;&#136;&#236;&#157;&#132;" d="M875.873 237.808H878.273V241.504H875.873V245.032H871.817V235H875.873V237.808ZM870.857 243.928C869.801 244.36 867.881 244.6 865.961 244.6H857.081V235.24H869.681V238.552H861.137V241.312H866.129C867.977 241.312 869.777 241.096 870.857 240.688V243.928ZM861.809 251.872V252.688H876.089V255.496H857.801V249.376H871.865V248.56H857.753V245.752H875.873V251.872H861.809ZM899.535 235V246.16H895.479V235H899.535ZM893.103 235.24V245.056H880.383V235.24H884.343V236.968H889.143V235.24H893.103ZM884.343 241.864H889.143V240.088H884.343V241.864ZM900.183 252.472L899.199 255.736L890.055 253.48C887.775 254.944 884.391 255.496 881.007 255.496V252.208C883.935 252.208 886.791 251.68 888.159 250.456H881.223V247.288H888.303V245.776H892.431V247.288H899.535V250.456H892.623C892.551 250.6 892.503 250.744 892.455 250.864L900.183 252.472ZM924.445 238.144V242.008H922.045V246.088H917.989V235H922.045V238.144H924.445ZM910.021 242.728C908.413 244.552 905.965 245.872 903.037 245.944V242.392C905.677 242.248 907.405 240.424 907.837 238.6H903.325V235.24H916.381V238.6H911.941C911.893 238.984 911.821 239.368 911.701 239.728L917.101 242.728L915.205 245.728L910.021 242.728ZM903.949 255.496V246.808H922.045V255.496H903.949ZM908.005 250.144V252.16H917.989V250.144H908.005ZM936.131 241.624C933.731 244.384 930.179 246.112 926.363 246.088V242.272C930.371 242.272 934.259 239.2 934.907 234.688L939.035 235.288C938.867 236.44 938.531 237.52 938.075 238.552L946.547 242.704L944.651 246.112L936.131 241.624ZM946.619 247.624V251.368H938.339V255.976H934.163V251.368H925.883V247.624H946.619ZM977.344 242.488V246.424H974.944V255.496H970.888V235H974.944V242.488H977.344ZM956.392 254.536V235.48H968.32V254.536H956.392ZM960.448 239.248V250.768H964.264V239.248H960.448ZM989.149 234.664C994.525 234.664 998.461 235.672 998.461 238.528C998.461 241.384 994.525 242.392 989.149 242.392C983.773 242.392 979.837 241.384 979.837 238.528C979.837 235.672 983.773 234.664 989.149 234.664ZM989.149 237.568C986.101 237.568 984.133 237.856 984.133 238.528C984.133 239.224 986.101 239.488 989.149 239.488C992.197 239.488 994.165 239.224 994.165 238.528C994.165 237.856 992.197 237.568 989.149 237.568ZM999.517 243.064V246.016H978.781V243.064H999.517ZM998.317 246.808V252.16H983.965V252.856H998.533V255.496H980.005V250.048H994.357V249.352H979.957V246.808H998.317Z" fill="#5277FC"/>
<path id="Polygon 16" d="M847.07 268.062L847.07 280.062L833.07 268.062L847.07 268.062Z" fill="#4A4C54"/>
<path id="Polygon 17" d="M1009.07 268L1009.07 280L1023.07 268L1009.07 268Z" fill="#4A4C54"/>
</g>
</g>
<g id="Group 2085665091">
<path id="Exclude_4" fill-rule="evenodd" clip-rule="evenodd" d="M362.731 176.11L382.194 191.368C385.319 193.818 387.345 197.406 387.829 201.348L396.62 273.06C410.89 260.066 428.658 251.055 448.154 247.402L531.508 231.786C541.759 229.865 552.358 231.749 561.32 237.083C571.684 243.251 584.167 244.767 595.706 241.259L653.665 223.64C675.416 217.027 698.919 219.519 718.8 230.545C737.32 240.816 751.264 257.7 757.856 277.802L767.921 272.761C775.369 269.031 778.351 259.945 774.562 252.527L770.497 244.568C769.113 241.859 768.586 238.794 768.985 235.778L774.906 191.029L780.872 145.929C781.242 143.132 780.816 140.288 779.643 137.723L743.011 57.6139C740.708 52.5785 735.819 49.221 730.292 48.8803L626.91 42.5075C624.637 42.3674 622.361 42.7467 620.257 43.6167L365.578 148.893C357.815 152.102 354.2 161.06 357.562 168.759L358.239 170.308C359.233 172.584 360.777 174.578 362.731 176.11Z" fill="#A7A9B2"/>
<g id="Group 2085665040">
<path id="Rectangle 1954129072" d="M687.07 150H639.07V194H687.07L676.67 172L687.07 150Z" fill="#E3E6ED"/>
<path id="Rectangle 1954129073" d="M453.07 150H501.07V194H453.07L463.47 172L453.07 150Z" fill="#E3E6ED"/>
<rect id="Rectangle 1954129074" x="487.07" y="138" width="166" height="44" fill="#F8F9FC"/>
<path id="&#235;&#167;&#144;&#235;&#176;&#148;&#235;&#158;&#140; &#234;&#179;&#160;&#236;&#155;&#144;" d="M529.916 151.808H532.316V155.504H529.916V159.032H525.86V149H529.916V151.808ZM523.628 149.24V158.6H511.124V149.24H523.628ZM519.644 155.36V152.48H515.108V155.36H519.644ZM515.852 165.872V166.688H530.132V169.496H511.844V163.376H525.908V162.56H511.796V159.752H529.916V165.872H515.852ZM555.402 156.488V160.424H553.002V169.496H548.946V149H553.002V156.488H555.402ZM542.394 155.504V149.48H546.378V168.536H534.45V149.48H538.434V155.504H542.394ZM538.434 164.816H542.394V159.2H538.434V164.816ZM578.488 152.72V156.656H576.088V160.952H572.032V149H576.088V152.72H578.488ZM557.296 153.488H565.528V152.312H557.248V149.24H569.536V156.344H561.304V157.52H566.344C568.192 157.52 569.992 157.28 571.072 156.848V159.872C570.016 160.328 568.096 160.592 566.176 160.592H557.296V153.488ZM557.992 169.496V161.672H576.088V169.496H557.992ZM562.024 164.84V166.328H572.056V164.84H562.024ZM602.037 162.992V153.248H587.733V149.48H606.261V162.992H602.037ZM597.525 164.984H607.389V168.776H586.653V164.984H593.325V156.968H597.525V164.984ZM617.035 157.136C613.339 157.136 610.747 155.744 610.747 152.96C610.747 150.176 613.339 148.784 617.035 148.784C620.731 148.784 623.323 150.176 623.323 152.96C623.323 155.744 620.731 157.136 617.035 157.136ZM620.371 161.528H625.651V149H629.707V164.912H625.651V164.336H620.371V161.528ZM617.035 151.76C615.595 151.76 614.659 152.144 614.659 152.96C614.659 153.776 615.595 154.16 617.035 154.16C618.475 154.16 619.411 153.776 619.411 152.96C619.411 152.144 618.475 151.76 617.035 151.76ZM615.427 166.112H629.995V169.496H611.371V162.992H614.635V160.952H609.739V157.832H619.171C621.067 157.832 623.203 157.64 624.475 157.088V160.208C623.203 160.76 621.139 160.952 619.099 160.952H618.667V164.048H615.427V166.112Z" fill="#5277FC"/>
<path id="Polygon 14" d="M501.07 182.062L501.07 194.062L487.07 182.062L501.07 182.062Z" fill="#9396A2"/>
<path id="Polygon 15" d="M639.07 182.001L639.07 194.001L653.07 182L639.07 182.001Z" fill="#9396A2"/>
</g>
</g>
</g>
</svg>
