<svg width="1102" height="667" viewBox="0 0 1102 667" fill="none" xmlns="http://www.w3.org/2000/svg">
<g id="image_map all clear">
<g id="Group 2085665102">
<path id="Exclude_3" fill-rule="evenodd" clip-rule="evenodd" d="M362.416 176.19L381.879 191.448C385.004 193.898 387.03 197.487 387.513 201.428L396.305 273.14C410.575 260.146 428.343 251.135 447.839 247.482L531.193 231.866C541.444 229.946 552.043 231.829 561.005 237.163C571.369 243.331 583.852 244.847 595.391 241.34L653.35 223.72C675.101 217.108 698.604 219.6 718.485 230.626C737.005 240.896 750.949 257.781 757.541 277.883L767.605 272.842C775.054 269.111 778.036 260.026 774.247 252.607L770.182 244.649C768.798 241.94 768.271 238.874 768.67 235.858L774.59 191.109L780.557 146.009C780.927 143.213 780.501 140.369 779.328 137.803L742.696 57.6943C740.393 52.6589 735.504 49.3014 729.977 48.9607L626.595 42.5879C624.321 42.4477 622.046 42.8271 619.941 43.6971L365.263 148.973C357.5 152.182 353.885 161.141 357.247 168.839L357.924 170.389C358.918 172.665 360.461 174.658 362.416 176.19Z" fill="#D1C0B0"/>
<g id="Rectangle 1954129085" filter="url(#filter3_d_698_4028)">
<rect x="507.125" y="53.0803" width="129" height="129" rx="64.5" fill="white"/>
</g>
<g id="Group 2085665048">
<path id="Ellipse 32" d="M605.526 150.976C605.526 162.691 589.99 164.915 570.826 164.915C551.661 164.915 536.125 162.691 536.125 150.976C536.125 139.261 551.661 129.764 570.826 129.764C589.99 129.764 605.526 139.261 605.526 150.976Z" fill="#D1C0B0"/>
<path id="Intersect_3" fill-rule="evenodd" clip-rule="evenodd" d="M590.138 94.6129C589.304 95.4481 588.033 95.6588 586.974 95.1376C583.296 93.327 580.515 89.8295 579.793 85.4763C579.071 81.1232 580.574 76.9152 583.471 74.0142C584.305 73.179 585.576 72.9683 586.635 73.4895C590.313 75.3001 593.094 78.7976 593.816 83.1507C594.538 87.5038 593.035 91.7119 590.138 94.6129Z" fill="#D1C0B0"/>
<path id="Intersect_4" fill-rule="evenodd" clip-rule="evenodd" d="M550.499 94.6129C551.333 95.4481 552.603 95.6588 553.662 95.1376C557.341 93.327 560.122 89.8295 560.844 85.4763C561.566 81.1232 560.062 76.9152 557.166 74.0142C556.332 73.179 555.061 72.9683 554.002 73.4895C550.324 75.3001 547.543 78.7976 546.821 83.1507C546.099 87.5038 547.602 91.7119 550.499 94.6129Z" fill="#D1C0B0"/>
<ellipse id="Ellipse 38" cx="570.557" cy="115.661" rx="29.9256" ry="31.1951" fill="#D1C0B0"/>
<ellipse id="Ellipse 39" cx="570.557" cy="135.974" rx="27.7492" ry="16.323" fill="#C1A993"/>
<ellipse id="Ellipse 44" cx="570.675" cy="86.5013" rx="12.0175" ry="11.1162" fill="#C1A993"/>
<ellipse id="Ellipse 40" cx="584.645" cy="121.803" rx="8.56247" ry="5.25765" fill="#FFC895"/>
<ellipse id="Ellipse 41" cx="557.006" cy="121.803" rx="8.56247" ry="5.25765" fill="#FFC895"/>
<ellipse id="Ellipse 42" cx="564.667" cy="116.395" rx="2.10306" ry="1.95284" fill="black"/>
<ellipse id="Ellipse 43" cx="576.985" cy="116.395" rx="2.10306" ry="1.95284" fill="black"/>
</g>
<g id="Group 2085665040">
<path id="Rectangle 1954129072" d="M688.125 150.08H640.125V194.08H688.125L677.725 172.08L688.125 150.08Z" fill="#E3E6ED"/>
<path id="Rectangle 1954129073" d="M454.125 150.08H502.125V194.08H454.125L464.525 172.08L454.125 150.08Z" fill="#E3E6ED"/>
<rect id="Rectangle 1954129074" x="488.125" y="138.08" width="166" height="44" fill="#F8F9FC"/>
<path id="&#235;&#167;&#144;&#235;&#176;&#148;&#235;&#158;&#140; &#234;&#179;&#160;&#236;&#155;&#144;" d="M530.971 151.888H533.371V155.584H530.971V159.112H526.915V149.08H530.971V151.888ZM524.683 149.32V158.68H512.179V149.32H524.683ZM520.699 155.44V152.56H516.163V155.44H520.699ZM516.907 165.952V166.768H531.187V169.576H512.899V163.456H526.963V162.64H512.851V159.832H530.971V165.952H516.907ZM556.457 156.568V160.504H554.057V169.576H550.001V149.08H554.057V156.568H556.457ZM543.449 155.584V149.56H547.433V168.616H535.505V149.56H539.489V155.584H543.449ZM539.489 164.896H543.449V159.28H539.489V164.896ZM579.543 152.8V156.736H577.143V161.032H573.087V149.08H577.143V152.8H579.543ZM558.351 153.568H566.583V152.392H558.303V149.32H570.591V156.424H562.359V157.6H567.399C569.247 157.6 571.047 157.36 572.127 156.928V159.952C571.071 160.408 569.151 160.672 567.231 160.672H558.351V153.568ZM559.047 169.576V161.752H577.143V169.576H559.047ZM563.079 164.92V166.408H573.111V164.92H563.079ZM603.091 163.072V153.328H588.787V149.56H607.315V163.072H603.091ZM598.579 165.064H608.443V168.856H587.707V165.064H594.379V157.048H598.579V165.064ZM618.089 157.216C614.393 157.216 611.801 155.824 611.801 153.04C611.801 150.256 614.393 148.864 618.089 148.864C621.785 148.864 624.377 150.256 624.377 153.04C624.377 155.824 621.785 157.216 618.089 157.216ZM621.425 161.608H626.705V149.08H630.761V164.992H626.705V164.416H621.425V161.608ZM618.089 151.84C616.649 151.84 615.713 152.224 615.713 153.04C615.713 153.856 616.649 154.24 618.089 154.24C619.529 154.24 620.465 153.856 620.465 153.04C620.465 152.224 619.529 151.84 618.089 151.84ZM616.481 166.192H631.049V169.576H612.425V163.072H615.689V161.032H610.793V157.912H620.225C622.121 157.912 624.257 157.72 625.529 157.168V160.288C624.257 160.84 622.193 161.032 620.153 161.032H619.721V164.128H616.481V166.192Z" fill="#5277FC"/>
<path id="Polygon 14" d="M502.125 182.142L502.125 194.142L488.125 182.142L502.125 182.142Z" fill="#9396A2"/>
<path id="Polygon 15" d="M640.125 182.081L640.125 194.081L654.125 182.08L640.125 182.081Z" fill="#9396A2"/>
</g>
</g>
</g>
<defs>
<filter id="filter0_d_698_4028" x="83.125" y="299.08" width="169" height="169" filterUnits="userSpaceOnUse" color-interpolation-filters="sRGB">
<feFlood flood-opacity="0" result="BackgroundImageFix"/>
<feColorMatrix in="SourceAlpha" type="matrix" values="0 0 0 0 0 0 0 0 0 0 0 0 0 0 0 0 0 0 127 0" result="hardAlpha"/>
<feOffset dy="-5"/>
<feGaussianBlur stdDeviation="10"/>
<feComposite in2="hardAlpha" operator="out"/>
<feColorMatrix type="matrix" values="0 0 0 0 0 0 0 0 0 0 0 0 0 0 0 0 0 0 0.15 0"/>
<feBlend mode="normal" in2="BackgroundImageFix" result="effect1_dropShadow_698_4028"/>
<feBlend mode="normal" in="SourceGraphic" in2="effect1_dropShadow_698_4028" result="shape"/>
</filter>
<filter id="filter1_d_698_4028" x="472.125" y="222.08" width="169" height="169" filterUnits="userSpaceOnUse" color-interpolation-filters="sRGB">
<feFlood flood-opacity="0" result="BackgroundImageFix"/>
<feColorMatrix in="SourceAlpha" type="matrix" values="0 0 0 0 0 0 0 0 0 0 0 0 0 0 0 0 0 0 127 0" result="hardAlpha"/>
<feOffset dy="-5"/>
<feGaussianBlur stdDeviation="10"/>
<feComposite in2="hardAlpha" operator="out"/>
<feColorMatrix type="matrix" values="0 0 0 0 0 0 0 0 0 0 0 0 0 0 0 0 0 0 0.15 0"/>
<feBlend mode="normal" in2="BackgroundImageFix" result="effect1_dropShadow_698_4028"/>
<feBlend mode="normal" in="SourceGraphic" in2="effect1_dropShadow_698_4028" result="shape"/>
</filter>
<filter id="filter2_d_698_4028" x="845.125" y="113.08" width="169" height="169" filterUnits="userSpaceOnUse" color-interpolation-filters="sRGB">
<feFlood flood-opacity="0" result="BackgroundImageFix"/>
<feColorMatrix in="SourceAlpha" type="matrix" values="0 0 0 0 0 0 0 0 0 0 0 0 0 0 0 0 0 0 127 0" result="hardAlpha"/>
<feOffset dy="-5"/>
<feGaussianBlur stdDeviation="10"/>
<feComposite in2="hardAlpha" operator="out"/>
<feColorMatrix type="matrix" values="0 0 0 0 0 0 0 0 0 0 0 0 0 0 0 0 0 0 0.15 0"/>
<feBlend mode="normal" in2="BackgroundImageFix" result="effect1_dropShadow_698_4028"/>
<feBlend mode="normal" in="SourceGraphic" in2="effect1_dropShadow_698_4028" result="shape"/>
</filter>
<filter id="filter3_d_698_4028" x="487.125" y="28.0803" width="169" height="169" filterUnits="userSpaceOnUse" color-interpolation-filters="sRGB">
<feFlood flood-opacity="0" result="BackgroundImageFix"/>
<feColorMatrix in="SourceAlpha" type="matrix" values="0 0 0 0 0 0 0 0 0 0 0 0 0 0 0 0 0 0 127 0" result="hardAlpha"/>
<feOffset dy="-5"/>
<feGaussianBlur stdDeviation="10"/>
<feComposite in2="hardAlpha" operator="out"/>
<feColorMatrix type="matrix" values="0 0 0 0 0 0 0 0 0 0 0 0 0 0 0 0 0 0 0.15 0"/>
<feBlend mode="normal" in2="BackgroundImageFix" result="effect1_dropShadow_698_4028"/>
<feBlend mode="normal" in="SourceGraphic" in2="effect1_dropShadow_698_4028" result="shape"/>
</filter>
<filter id="filter4_d_698_4028" x="437.125" y="418.08" width="169" height="169" filterUnits="userSpaceOnUse" color-interpolation-filters="sRGB">
<feFlood flood-opacity="0" result="BackgroundImageFix"/>
<feColorMatrix in="SourceAlpha" type="matrix" values="0 0 0 0 0 0 0 0 0 0 0 0 0 0 0 0 0 0 127 0" result="hardAlpha"/>
<feOffset dy="-5"/>
<feGaussianBlur stdDeviation="10"/>
<feComposite in2="hardAlpha" operator="out"/>
<feColorMatrix type="matrix" values="0 0 0 0 0 0 0 0 0 0 0 0 0 0 0 0 0 0 0.15 0"/>
<feBlend mode="normal" in2="BackgroundImageFix" result="effect1_dropShadow_698_4028"/>
<feBlend mode="normal" in="SourceGraphic" in2="effect1_dropShadow_698_4028" result="shape"/>
</filter>
</defs>
</svg>
